<svg xmlns="http://www.w3.org/2000/svg" viewBox="0 0 1080 1080"><defs><style>.a{fill:#fff;}.b{fill:none;stroke:#fff;stroke-linecap:round;stroke-miterlimit:10;stroke-width:93px;}</style></defs><path class="a" d="M576.06,442.57a34.84,34.84,0,0,1,17,4c15.27,8.24,20.63,28.05,22.47,39.12,4.56,27.47-2,60.14-17.87,89.62-12.37,22.9-29.08,41.85-48.33,54.79-15.35,10.31-31.27,16-44.84,16a34.92,34.92,0,0,1-17-4C472.22,633.85,466.85,614,465,603c-4.56-27.47,2-60.14,17.87-89.62,12.36-22.9,29.07-41.84,48.33-54.78,15.35-10.32,31.27-16,44.84-16m0-93c-64.87,0-134.71,45-175,119.6-53.54,99.2-34.62,213.26,42.26,254.77a127.74,127.74,0,0,0,61.17,15.13c64.87,0,134.71-45,175-119.6,53.55-99.2,34.63-213.26-42.25-254.76a127.77,127.77,0,0,0-61.17-15.14Z"/><path class="b" d="M418.5,605.5c-11-48-2.72-166.39,17-235,25-87,75-153,134-222-107-13-299.57,35.12-372,225-53.55,140.38-74,308,28,540"/><path class="b" d="M854.13,165.51c102,232,81.55,399.62,28,540-72.43,189.88-265,238-372,225,59-69,109-135,134-222,19.72-68.61,28-187,17-235"/></svg>